<svg width="60" height="60" viewBox="0 0 60 60" fill="none" xmlns="http://www.w3.org/2000/svg">
<path d="M17.9004 3.75C10.1074 3.75 3.75 10.1074 3.75 17.9004V38.3643C3.75 46.1426 10.1074 52.5 17.9004 52.5H38.3643C46.1426 52.5 52.5 46.1426 52.5 38.3496V17.9004C52.5 10.1074 46.1426 3.75 38.3496 3.75H17.9004ZM17.9004 7.5H38.3496C44.1211 7.5 48.75 12.1289 48.75 17.9004V38.3496C48.75 44.1211 44.1211 48.75 38.3643 48.75H17.9004C12.1289 48.75 7.5 44.1211 7.5 38.3643V17.9004C7.5 12.1289 12.1289 7.5 17.9004 7.5ZM43.125 11.25C42.085 11.25 41.25 12.085 41.25 13.125C41.25 14.165 42.085 15 43.125 15C44.165 15 45 14.165 45 13.125C45 12.085 44.165 11.25 43.125 11.25ZM28.125 15C20.9033 15 15 20.9033 15 28.125C15 35.3467 20.9033 41.25 28.125 41.25C35.3467 41.25 41.25 35.3467 41.25 28.125C41.25 20.9033 35.3467 15 28.125 15ZM28.125 18.75C33.3252 18.75 37.5 22.9248 37.5 28.125C37.5 33.3252 33.3252 37.5 28.125 37.5C22.9248 37.5 18.75 33.3252 18.75 28.125C18.75 22.9248 22.9248 18.75 28.125 18.75Z" fill="black"/>
</svg>
